<?xml version="1.0" encoding="UTF-8" standalone="no"?>
<svg
   xmlns:dc="http://purl.org/dc/elements/1.1/"
   xmlns:cc="http://creativecommons.org/ns#"
   xmlns:rdf="http://www.w3.org/1999/02/22-rdf-syntax-ns#"
   xmlns:svg="http://www.w3.org/2000/svg"
   xmlns="http://www.w3.org/2000/svg"
   xmlns:xlink="http://www.w3.org/1999/xlink"
   xmlns:sodipodi="http://sodipodi.sourceforge.net/DTD/sodipodi-0.dtd"
   xmlns:inkscape="http://www.inkscape.org/namespaces/inkscape"
   sodipodi:docname="toggle-off.svg"
   inkscape:version="1.0beta2 (unknown)"
   version="1.1"
   id="svg2857"
   height="21"
   width="72">
  <defs
     id="defs2859">
    <linearGradient
       id="linearGradient3864">
      <stop
         id="stop3866"
         offset="0"
         style="stop-color:#a248af;stop-opacity:1;" />
      <stop
         id="stop3868"
         offset="1"
         style="stop-color:#a86ab1;stop-opacity:1;" />
    </linearGradient>
    <inkscape:perspective
       id="perspective2865"
       inkscape:persp3d-origin="372.04724 : 350.78739 : 1"
       inkscape:vp_z="744.09448 : 526.18109 : 1"
       inkscape:vp_y="0 : 1000 : 0"
       inkscape:vp_x="0 : 526.18109 : 1"
       sodipodi:type="inkscape:persp3d" />
    <inkscape:perspective
       sodipodi:type="inkscape:persp3d"
       inkscape:vp_x="0 : 0.5 : 1"
       inkscape:vp_y="0 : 1000 : 0"
       inkscape:vp_z="1 : 0.5 : 1"
       inkscape:persp3d-origin="0.5 : 0.33333333 : 1"
       id="perspective2843" />
    <clipPath
       id="clipPath3860"
       clipPathUnits="userSpaceOnUse">
      <rect
         ry="10.5"
         y="0"
         x="0"
         height="21"
         width="72"
         id="rect3862"
         style="opacity:0.7;color:#000000;fill:#000000;fill-opacity:1;fill-rule:nonzero;stroke:none;stroke-width:2;marker:none;visibility:visible;display:inline;overflow:visible;enable-background:new" />
    </clipPath>
    <linearGradient
       gradientTransform="translate(-444.64286,-782.36221)"
       gradientUnits="userSpaceOnUse"
       y2="803.36218"
       x2="464.64285"
       y1="783.36218"
       x1="464.64285"
       id="linearGradient3870"
       xlink:href="#linearGradient3864"
       inkscape:collect="always" />
    <linearGradient
       y2="803.36218"
       x2="464.64285"
       y1="783.36218"
       x1="464.64285"
       gradientTransform="translate(-444.64286,-782.36221)"
       gradientUnits="userSpaceOnUse"
       id="linearGradient3789"
       xlink:href="#linearGradient3864"
       inkscape:collect="always" />
    <linearGradient
       y2="803.36218"
       x2="464.64285"
       y1="783.36218"
       x1="464.64285"
       gradientTransform="translate(-444.64286,-782.36221)"
       gradientUnits="userSpaceOnUse"
       id="linearGradient3808"
       xlink:href="#linearGradient3864"
       inkscape:collect="always" />
    <filter
       height="1.072"
       y="-0.036"
       width="1.072"
       x="-0.036"
       id="filter930"
       style="color-interpolation-filters:sRGB"
       inkscape:collect="always">
      <feGaussianBlur
         id="feGaussianBlur932"
         stdDeviation="0.225"
         inkscape:collect="always" />
    </filter>
  </defs>
  <sodipodi:namedview
     inkscape:document-rotation="0"
     showborder="true"
     inkscape:guide-bbox="true"
     showguides="true"
     inkscape:snap-bbox-edge-midpoints="true"
     inkscape:snap-bbox-midpoints="true"
     inkscape:bbox-nodes="true"
     inkscape:bbox-paths="true"
     inkscape:snap-bbox="true"
     inkscape:showpageshadow="false"
     borderlayer="true"
     inkscape:window-maximized="1"
     inkscape:window-y="25"
     inkscape:window-x="0"
     inkscape:window-height="707"
     inkscape:window-width="1366"
     showgrid="true"
     inkscape:current-layer="layer1"
     inkscape:document-units="px"
     inkscape:cy="6.6631589"
     inkscape:cx="35.004304"
     inkscape:zoom="11.812947"
     inkscape:pageshadow="2"
     inkscape:pageopacity="0"
     borderopacity="1.0"
     bordercolor="#666666"
     pagecolor="#37474f"
     id="base">
    <inkscape:grid
       snapvisiblegridlinesonly="true"
       enabled="true"
       visible="true"
       empspacing="5"
       id="grid3078"
       type="xygrid" />
  </sodipodi:namedview>
  <metadata
     id="metadata2862">
    <rdf:RDF>
      <cc:Work
         rdf:about="">
        <dc:format>image/svg+xml</dc:format>
        <dc:type
           rdf:resource="http://purl.org/dc/dcmitype/StillImage" />
        <dc:title />
      </cc:Work>
    </rdf:RDF>
  </metadata>
  <g
     transform="translate(-444.64286,-782.36218)"
     id="layer1"
     inkscape:groupmode="layer"
     inkscape:label="Layer 1">
    <path
       inkscape:connector-curvature="0"
       id="path900"
       transform="translate(444.64286,782.36218)"
       d="M 18.019531,10.914062 A 9.5,9.5 0 0 0 18,11.5 9.5,9.5 0 0 0 27.5,21 h 7.5 2 7.5 A 9.5,9.5 0 0 0 54,11.5 9.5,9.5 0 0 0 53.980469,11.085938 9.5,9.5 0 0 1 44.5,20 H 37 35 27.5 a 9.5,9.5 0 0 1 -9.480469,-9.085938 z"
       style="opacity:1;fill:none;fill-opacity:1" />
    <path
       inkscape:connector-curvature="0"
       id="path872"
       d="m 472.14286,783.36218 a 9.5,9.5 0 0 0 -9.5,9.5 9.5,9.5 0 0 0 9.5,9.5 h 7.5 2 7.5 a 9.5,9.5 0 0 0 9.5,-9.5 9.5,9.5 0 0 0 -9.5,-9.5 h -7.5 -2 z"
       style="fill:#292d36;fill-opacity:1;stroke:#292d36;stroke-opacity:1" />
    <rect
       ry="7.392344"
       y="786.86218"
       x="464.64285"
       height="15"
       width="15"
       id="rect934"
       style="color:#000000;display:inline;overflow:visible;visibility:visible;opacity:1;fill:#000000;fill-opacity:0.1;fill-rule:nonzero;stroke:none;stroke-width:1.76470685;stroke-opacity:1;marker:none;filter:url(#filter930);enable-background:new" />
    <rect
       style="color:#000000;display:inline;overflow:visible;visibility:visible;opacity:1;fill:#000000;fill-opacity:0.2;fill-rule:nonzero;stroke:none;stroke-width:1.76470685;stroke-opacity:1;marker:none;filter:url(#filter930);enable-background:new"
       id="rect912"
       width="15"
       height="15"
       x="464.64285"
       y="785.86218"
       ry="7.392344" />
    <rect
       ry="7.392344"
       y="785.36218"
       x="464.64285"
       height="15"
       width="15"
       id="rect3872"
       style="color:#000000;display:inline;overflow:visible;visibility:visible;opacity:1;fill:#808080;fill-opacity:1;fill-rule:nonzero;stroke:none;stroke-width:1.76470685;stroke-opacity:1;marker:none;enable-background:new" />
    <path
       inkscape:connector-curvature="0"
       id="path902"
       transform="translate(444.64286,782.36218)"
       d="M 27.5,1 A 9.5,9.5 0 0 0 18,10.5 9.5,9.5 0 0 0 18.019531,10.914062 9.5,9.5 0 0 1 27.5,2 h 7.5 2 7.5 A 9.5,9.5 0 0 1 53.980469,11.085938 9.5,9.5 0 0 0 54,10.5 9.5,9.5 0 0 0 44.5,1 H 37 35 Z"
       style="fill:none;fill-opacity:1" />
    <path
       inkscape:connector-curvature="0"
       id="rect936"
       d="m 472.03545,785.36218 c -4.09536,0 -7.39258,3.29722 -7.39258,7.39258 v 0.21484 c 0,0.1326 0.0127,0.26174 0.0195,0.39258 0.20406,-3.91019 3.41029,-7 7.37305,-7 h 0.21484 c 3.96276,0 7.16899,3.08981 7.37305,7 0.007,-0.13084 0.0195,-0.25998 0.0195,-0.39258 v -0.21484 c 0,-4.09536 -3.29722,-7.39258 -7.39258,-7.39258 z"
       style="color:#000000;display:inline;overflow:visible;visibility:visible;opacity:1;fill:none;fill-opacity:0.2;fill-rule:nonzero;stroke:none;stroke-width:1.76470685;stroke-opacity:1;marker:none;enable-background:new" />
  </g>
</svg>
